<?xml version="1.0" encoding="UTF-8" standalone="no"?>
<!DOCTYPE svg PUBLIC "-//W3C//DTD SVG 1.1//EN" "http://www.w3.org/Graphics/SVG/1.1/DTD/svg11.dtd">
<svg width="100%" height="100%" viewBox="0 0 1024 1024" version="1.1" xmlns="http://www.w3.org/2000/svg" xmlns:xlink="http://www.w3.org/1999/xlink" xml:space="preserve" xmlns:serif="http://www.serif.com/" style="fill-rule:evenodd;clip-rule:evenodd;stroke-linejoin:round;stroke-miterlimit:2;">
    <path d="M1024,256L1024,768C1024,909.29 909.29,1024 768,1024L256,1024C114.71,1024 0,909.29 0,768L0,256C0,114.71 114.71,0 256,0L768,0C909.29,0 1024,114.71 1024,256Z" style="fill:white;stroke:black;stroke-width:5px;"/>
    <g transform="matrix(1,0,0,1,-29.7863,15.5391)">
        <path d="M477.3,430.7C462.7,438.8 448.6,446.8 434.8,454.9C435.6,441.9 436.7,428.2 438.4,414C440,400.8 441.9,388.2 444,376.3C458.4,379.9 473.8,384.6 490.1,390.4C503.2,395.1 515.2,399.9 526.4,404.9C510.4,413 493.9,421.6 477.3,430.7ZM643.7,414C645.5,428.2 646.6,441.9 647.3,454.8C633.6,446.8 619.4,438.7 604.8,430.7C588.1,421.6 571.8,413 555.7,404.9C566.9,400 579,395.1 592,390.4C608.2,384.7 623.7,380 638.1,376.3C640.2,388.2 642.1,400.8 643.7,414ZM386.2,551.4C375.6,541.7 366.3,532.1 358.1,523L358,522.9C379.4,507.2 400.7,491.5 422.1,475.8C421.2,490.8 420.7,506.6 420.6,523L420.6,523.2C420.5,543.4 421.1,562.6 422.1,580.8C410.8,572.5 398.6,562.8 386.2,551.4ZM694.3,553.3C682.5,563.3 671.1,571.4 660.9,577.9C661.9,560.6 662.5,542.3 662.4,523.1C662.3,507.8 661.7,493.1 660.9,479C671.2,484.9 682.2,491.7 693.6,499.5C705.1,507.5 715.5,515.4 724.7,523.1C716.6,532.4 706.5,542.8 694.3,553.3ZM437.7,605.2C451.7,614.2 466.9,623.3 483.1,632.2C498.9,641 514.2,648.9 529,656C519.4,662.1 508.5,668.3 496.1,674.3C481.7,681.3 468,686.7 455.8,690.7C451.5,678.3 447.3,664 443.9,648C440.6,632.4 438.7,618 437.7,605.2ZM553.7,656.1C568.4,649 583.8,641.1 599.4,632.4C615.7,623.4 630.9,614.3 645,605.3C644,618.1 642.1,632.5 638.8,648.1C635.4,664.1 631.2,678.4 626.9,690.8C614.7,686.7 601.1,681.4 586.6,674.4C574.3,668.4 563.3,662.2 553.7,656.1ZM541.4,433.4C595.4,433.4 639.2,476.5 639.2,529.5C639.2,582.6 595.4,625.6 541.4,625.6C487.4,625.6 443.6,582.6 443.6,529.5C443.6,476.4 487.4,433.4 541.4,433.4ZM590.7,530.3C590.7,503.4 568.5,481.5 541,481.5C513.5,481.5 491.3,503.4 491.3,530.3C491.3,557.2 513.5,579.1 541,579.1C568.5,579.1 590.7,557.2 590.7,530.3ZM561.252,836.991C556.804,843.608 549.356,847.577 541.384,847.579C533.412,847.582 525.961,843.617 521.51,837.003C508.549,817.384 495.447,794.46 483.6,768.2C472.6,743.6 464.6,720.7 458.8,700C472.1,695.2 486.4,689.4 501.5,682.5C516.1,675.7 529.5,668.8 541.4,661.9C553.4,668.8 566.7,675.8 581.3,682.5C596.3,689.5 610.7,695.2 624,700C618.2,720.7 610.2,743.8 599.2,768.2C587.356,794.455 574.212,817.376 561.252,836.991ZM519.251,160.542C522.854,151.4 531.667,145.378 541.493,145.343C551.32,145.308 560.175,151.267 563.843,160.383C591.548,229.515 631.065,346.945 635.384,362.359C622.084,367.159 553.3,388.459 541.4,395.359C529.4,388.459 462.649,367.159 449.349,362.359C453.664,346.957 492.109,229.695 519.251,160.542ZM876.479,693.804C882.595,701.495 883.404,712.138 878.521,720.666C873.638,729.193 864.05,733.882 854.321,732.501C780.598,721.929 659.142,697.436 643.635,693.469C646.128,679.551 662.073,609.333 662.048,595.577C674.023,588.635 725.845,541.477 736.652,532.359C747.832,543.797 830.162,635.722 876.479,693.804ZM207.093,693.804C253.411,635.722 335.74,543.797 346.921,532.359C357.728,541.477 409.549,588.635 421.525,595.577C421.499,609.333 437.445,679.551 439.938,693.469C424.43,697.436 302.975,721.929 229.252,732.501C219.523,733.882 209.934,729.193 205.051,720.666C200.169,712.138 200.977,701.495 207.093,693.804ZM303.4,459.9C286.559,437.035 273.158,414.757 262.491,394.181C258.828,386.969 259.054,378.394 263.092,371.384C267.131,364.374 274.435,359.878 282.513,359.429C306.107,358.291 332.625,358.633 361.4,361.7C388.4,364.5 412.7,369.3 433.8,374.7C431.3,388.5 429.2,403.5 427.7,419.8C426.4,435.6 425.8,450.4 425.8,464C413.8,470.8 400.9,478.6 387.7,487.6C374.1,496.9 361.8,506.2 350.9,515.2C335.6,499.9 319.4,481.6 303.4,459.9ZM777.524,459.94C761.524,481.64 745.324,499.94 730.024,515.24C719.124,506.24 706.824,496.94 693.224,487.64C680.024,478.64 667.124,470.84 655.124,464.04C655.124,450.44 654.524,435.64 653.224,419.84C651.724,403.54 649.624,388.54 647.124,374.74C668.224,369.34 692.524,364.54 719.524,361.74C748.298,358.674 774.816,358.332 798.411,359.469C806.488,359.918 813.793,364.415 817.831,371.424C821.869,378.434 822.096,387.009 818.432,394.222C807.765,414.798 794.365,437.075 777.524,459.94Z" style="fill:url(#_Linear1);"/>
    </g>
    <defs>
        <linearGradient id="_Linear1" x1="0" y1="0" x2="1" y2="0" gradientUnits="userSpaceOnUse" gradientTransform="matrix(679.808,702.218,-702.218,679.808,201.886,145.361)"><stop offset="0" style="stop-color:rgb(151,150,240);stop-opacity:1"/><stop offset="0.32" style="stop-color:rgb(156,152,239);stop-opacity:1"/><stop offset="0.48" style="stop-color:rgb(188,168,230);stop-opacity:1"/><stop offset="1" style="stop-color:rgb(251,199,212);stop-opacity:1"/></linearGradient>
    </defs>
</svg>
