<?xml version="1.0" encoding="UTF-8" standalone="no"?>
<!DOCTYPE svg PUBLIC "-//W3C//DTD SVG 1.1//EN" "http://www.w3.org/Graphics/SVG/1.1/DTD/svg11.dtd">
<svg width="100%" height="100%" viewBox="0 0 1024 1024" version="1.1" xmlns="http://www.w3.org/2000/svg" xmlns:xlink="http://www.w3.org/1999/xlink" xml:space="preserve" xmlns:serif="http://www.serif.com/" style="fill-rule:evenodd;clip-rule:evenodd;stroke-linejoin:round;stroke-miterlimit:2;">
    <g transform="matrix(2.048,0,0,2.62717,-491.52,-630.522)">
        <path d="M740,337.443C740,283.663 683.989,240 615,240L365,240C296.011,240 240,283.663 240,337.443L240,532.329C240,586.11 296.011,629.772 365,629.772L615,629.772C683.989,629.772 740,586.11 740,532.329L740,337.443Z" style="fill:url(#_Linear1);"/>
        <clipPath id="_clip2">
            <path d="M740,337.443C740,283.663 683.989,240 615,240L365,240C296.011,240 240,283.663 240,337.443L240,532.329C240,586.11 296.011,629.772 365,629.772L615,629.772C683.989,629.772 740,586.11 740,532.329L740,337.443Z"/>
        </clipPath>
        <g clip-path="url(#_clip2)">
            <g transform="matrix(0.488281,0,0,0.380637,240,240)">
                <path d="M469.327,213.378C474.251,198.605 480.662,182.345 489.024,165.063L489.026,165.06C493.634,155.42 503.36,149.273 514.046,149.248C524.731,149.223 534.486,155.324 539.14,164.943C539.159,164.983 539.178,165.023 539.197,165.063C547.56,182.345 553.971,198.605 558.895,213.378C545.423,211.891 530.464,210.962 514.111,210.962C497.758,210.962 482.706,211.984 469.327,213.378ZM564.841,225.085C576.548,254.167 587.977,287.987 597.082,326.174C603.4,352.561 607.86,377.369 610.926,400.319C596.06,403.756 579.893,408.216 562.797,413.884C544.865,419.83 528.605,426.334 514.018,432.838C499.431,426.334 483.171,419.83 465.239,413.884C448.143,408.216 432.069,403.756 417.11,400.319C420.176,377.369 424.636,352.561 430.954,326.174C440.059,288.08 451.488,254.26 463.195,225.085C477.968,223.134 495.064,221.647 514.018,221.647C532.972,221.647 550.068,223.041 564.841,225.085ZM183.341,702.379C188.73,714.457 195.42,727.651 203.503,741.681C211.586,755.711 219.856,767.975 227.753,778.753C212.237,781.819 194.676,784.421 175.258,785.907C175.014,785.926 174.772,785.945 174.529,785.964C164.007,786.77 153.969,781.409 148.788,772.216C143.606,763.022 144.218,751.659 150.357,743.075C161.506,727.466 172.749,713.9 183.341,702.379ZM346.403,755.618C308.123,766.674 272.63,773.643 241.04,778.103C231.934,766.488 222.179,752.644 212.794,736.478C203.41,720.311 196.163,704.98 190.681,691.415C210.657,666.979 234.908,640.499 264.082,613.74C284.244,595.25 303.942,579.083 322.71,565.146C333.117,576.203 345.102,587.817 358.575,599.524C372.79,611.881 386.634,622.566 399.549,631.765C401.036,647.467 403.359,664.563 406.982,682.867C410.327,700.242 414.415,716.223 418.782,730.717C397.041,739.451 372.883,747.999 346.403,755.618ZM823.975,741.309C832.059,727.372 838.656,714.086 844.138,702.007C854.73,713.528 865.972,727.001 877.122,742.703C883.261,751.287 883.873,762.651 878.691,771.844C873.51,781.038 863.472,786.399 852.949,785.593C852.707,785.573 852.464,785.555 852.221,785.536C832.802,784.049 815.242,781.447 799.725,778.381C807.623,767.603 815.892,755.246 823.975,741.309ZM763.396,613.368C792.478,640.127 816.728,666.607 836.797,691.136C831.316,704.701 824.068,720.032 814.684,736.199C805.3,752.366 795.544,766.21 786.439,777.824C754.941,773.364 719.356,766.303 681.075,755.246C654.595,747.627 630.438,739.079 608.696,730.345C612.97,715.851 617.058,699.87 620.496,682.495C624.12,664.191 626.443,647.002 627.929,631.393C640.937,622.195 654.688,611.51 668.904,599.152C682.376,587.352 694.269,575.831 704.768,564.775C723.444,578.804 743.234,594.878 763.396,613.368ZM449.258,464.893C434.485,473.069 420.176,481.153 406.239,489.236C406.982,476.136 408.097,462.292 409.863,447.89C411.442,434.604 413.393,421.874 415.53,409.796C430.118,413.512 445.727,418.251 462.173,424.104C475.366,428.843 487.538,433.767 498.873,438.785C482.706,446.961 466.075,455.695 449.258,464.893ZM617.523,447.983C619.288,462.385 620.403,476.229 621.147,489.329C607.303,481.246 592.901,473.069 578.128,464.986C561.311,455.788 544.772,447.054 528.512,438.878C539.848,433.86 552.112,428.936 565.213,424.197C581.659,418.344 597.268,413.605 611.855,409.889C613.992,421.874 615.943,434.604 617.523,447.983ZM357.088,586.981C346.403,577.132 336.926,567.469 328.657,558.271L328.564,558.178C350.213,542.29 371.768,526.402 393.417,510.513C392.581,525.751 392.023,541.732 391.93,558.271L391.93,558.456C391.838,578.897 392.395,598.316 393.417,616.713C381.989,608.351 369.631,598.502 357.088,586.981ZM668.625,588.839C656.732,598.966 645.211,607.143 634.805,613.74C635.827,596.179 636.384,577.689 636.291,558.271C636.198,542.754 635.641,527.888 634.805,513.672C645.211,519.619 656.361,526.494 667.882,534.392C679.589,542.475 690.088,550.466 699.379,558.271C691.203,567.748 680.983,578.247 668.625,588.839ZM409.119,641.335C423.335,650.44 438.666,659.639 455.111,668.744C471.092,677.664 486.609,685.654 501.568,692.809C491.905,698.941 480.848,705.259 468.305,711.298C453.718,718.36 439.873,723.749 427.516,727.837C423.149,715.293 418.875,700.799 415.437,684.632C412.093,668.837 410.141,654.25 409.119,641.335ZM526.468,692.809C541.334,685.654 556.944,677.664 572.832,668.744C589.277,659.639 604.608,650.44 618.917,641.335C617.895,654.343 615.943,668.837 612.599,684.632C609.161,700.799 604.887,715.293 600.52,727.837C588.163,723.749 574.411,718.36 559.731,711.298C547.281,705.259 536.131,698.941 526.468,692.809ZM514.018,467.588C568.651,467.588 612.97,511.164 612.97,564.775C612.97,618.478 568.558,661.961 514.018,661.961C459.478,661.961 415.159,618.478 415.159,564.775C415.159,511.071 459.385,467.588 514.018,467.588ZM563.912,565.611C563.912,538.387 541.427,516.274 513.646,516.274C485.865,516.274 463.38,538.387 463.38,565.611C463.38,592.834 485.865,614.948 513.646,614.948C541.427,614.948 563.912,592.834 563.912,565.611ZM175.682,685.491C176.695,688.268 176.279,691.366 174.57,693.777C162.489,710.824 150.43,727.87 138.331,744.916C132.641,752.923 123.051,757.209 113.291,756.106C103.53,755.004 95.138,748.687 91.378,739.612C83.037,719.276 75.22,695.121 70.08,667.536C46.109,538.852 99.905,438.32 112.448,416.021C126.199,391.771 180.646,301.645 295.115,252.494L295.127,252.489C301.334,249.83 308.546,252.307 311.809,258.219C315.072,264.132 313.322,271.555 307.763,275.388C300.256,280.539 292.709,286.156 285.173,292.261C231.47,335.837 204.339,383.037 195.513,399.482C186.407,416.393 160.67,467.773 155.56,539.781C151.046,603.426 164.662,654.674 175.682,685.491ZM849.428,693.779C847.718,691.366 847.303,688.268 848.316,685.49C859.338,654.674 872.954,603.426 868.44,539.781C863.33,467.773 837.593,416.393 828.487,399.482C819.661,383.037 792.53,335.837 738.827,292.261C731.291,286.156 723.744,280.539 716.249,275.371C710.696,271.545 708.949,264.132 712.207,258.228C715.465,252.324 722.668,249.851 728.865,252.509C728.877,252.491 728.881,252.493 728.885,252.494C843.354,301.645 897.801,391.771 911.552,416.021C924.095,438.32 977.891,538.852 953.92,667.536C948.78,695.121 940.963,719.276 932.608,739.606C928.85,748.676 920.463,754.989 910.708,756.091C900.952,757.193 891.368,752.91 885.682,744.907C873.57,727.87 861.511,710.824 849.428,693.779ZM536.511,872.096C531.528,879.66 523.076,884.214 514.018,884.214C504.96,884.214 496.508,879.661 491.525,872.096C479.211,853.098 466.826,831.166 455.576,806.255C444.426,781.447 436.343,758.219 430.489,737.314C443.962,732.482 458.456,726.629 473.694,719.66C488.467,712.785 501.939,705.816 514.018,698.848C526.097,705.816 539.569,712.878 554.342,719.66C569.487,726.722 584.074,732.482 597.547,737.314C591.693,758.219 583.61,781.54 572.46,806.255C561.21,831.166 548.825,853.098 536.511,872.096ZM697.242,394.558C724.529,391.659 749.798,391.16 772.497,392.06C781.674,392.492 789.998,397.572 794.579,405.537C799.16,413.501 799.366,423.251 795.125,431.401C784.691,451.09 771.791,472.229 755.777,493.882C739.611,515.809 723.165,534.299 707.741,549.816C696.685,540.803 684.327,531.326 670.483,521.942C657.104,512.836 644.189,504.939 632.017,498.063C632.017,484.312 631.46,469.353 630.066,453.372C628.673,436.926 626.443,421.689 623.934,407.752C645.304,402.27 669.833,397.438 697.242,394.558ZM273.374,494.439C257.412,472.781 244.498,451.637 234.069,431.941C229.838,423.793 230.049,414.05 234.629,406.093C239.21,398.136 247.529,393.061 256.7,392.628C279.451,391.715 304.76,392.211 332.095,395.116C359.411,397.996 383.94,402.827 405.31,408.309C402.801,422.246 400.664,437.484 399.178,453.929C397.784,469.91 397.226,484.869 397.226,498.621C385.055,505.496 372.047,513.394 358.668,522.499C344.824,531.883 332.466,541.268 321.41,550.373C305.986,534.857 289.54,516.367 273.374,494.439Z" style="fill:white;"/>
            </g>
        </g>
    </g>
    <defs>
        <linearGradient id="_Linear1" x1="0" y1="0" x2="1" y2="0" gradientUnits="userSpaceOnUse" gradientTransform="matrix(500,389.772,-500,389.772,240,240)"><stop offset="0" style="stop-color:rgb(139,222,218);stop-opacity:1"/><stop offset="0.25" style="stop-color:rgb(67,173,208);stop-opacity:1"/><stop offset="0.5" style="stop-color:rgb(153,142,224);stop-opacity:1"/><stop offset="0.75" style="stop-color:rgb(225,125,194);stop-opacity:1"/><stop offset="1" style="stop-color:rgb(239,147,147);stop-opacity:1"/></linearGradient>
    </defs>
</svg>
